<svg width="800" height="250" xmlns="http://www.w3.org/2000/svg">
    <!-- Background -->
    <rect width="800" height="250" fill="#0a0e14"/>

    <!-- Border -->
    <rect x="2" y="2" width="796" height="246" fill="none" stroke="#33ff00" stroke-width="2"/>

    <!-- Title -->
    <text x="50" y="30" font-family="'Courier New', 'Courier', monospace" font-size="18" font-weight="bold" fill="#33ff00">
        ┌─ RECOVERY SCORE ─┐
    </text>

    <line x1="50" y1="50.0" x2="750" y2="50.0"
          stroke="#1a5f1a" stroke-width="1" stroke-dasharray="5,5" opacity="0.5"/>
    <text x="40" y="54.0" font-family="'Courier New', 'Courier', monospace"
          font-size="12" fill="#33ff00" text-anchor="end">94.0</text>
    <line x1="50" y1="82.5" x2="750" y2="82.5"
          stroke="#1a5f1a" stroke-width="1" stroke-dasharray="5,5" opacity="0.5"/>
    <text x="40" y="86.5" font-family="'Courier New', 'Courier', monospace"
          font-size="12" fill="#33ff00" text-anchor="end">70.8</text>
    <line x1="50" y1="115.0" x2="750" y2="115.0"
          stroke="#1a5f1a" stroke-width="1" stroke-dasharray="5,5" opacity="0.5"/>
    <text x="40" y="119.0" font-family="'Courier New', 'Courier', monospace"
          font-size="12" fill="#33ff00" text-anchor="end">47.5</text>
    <line x1="50" y1="147.5" x2="750" y2="147.5"
          stroke="#1a5f1a" stroke-width="1" stroke-dasharray="5,5" opacity="0.5"/>
    <text x="40" y="151.5" font-family="'Courier New', 'Courier', monospace"
          font-size="12" fill="#33ff00" text-anchor="end">24.2</text>
    <line x1="50" y1="180.0" x2="750" y2="180.0"
          stroke="#1a5f1a" stroke-width="1" stroke-dasharray="5,5" opacity="0.5"/>
    <text x="40" y="184.0" font-family="'Courier New', 'Courier', monospace"
          font-size="12" fill="#33ff00" text-anchor="end">1.0</text>
    <!-- Y-axis -->
    <line x1="50" y1="50" x2="50" y2="180"
          stroke="#33ff00" stroke-width="2"/>
    <!-- X-axis -->
    <line x1="50" y1="180" x2="750" y2="180"
          stroke="#33ff00" stroke-width="2"/>
    <line x1="50.0" y1="108.70967741935485" x2="79.16666666666667" y2="73.76344086021504" stroke="#00ffff" stroke-width="3" stroke-linecap="round"/>
    <line x1="79.16666666666667" y1="73.76344086021504" x2="108.33333333333334" y2="107.31182795698925" stroke="#00ffff" stroke-width="3" stroke-linecap="round"/>
    <line x1="108.33333333333334" y1="107.31182795698925" x2="137.5" y2="110.10752688172043" stroke="#00ffff" stroke-width="3" stroke-linecap="round"/>
    <line x1="137.5" y1="110.10752688172043" x2="166.66666666666669" y2="133.8709677419355" stroke="#00ffff" stroke-width="3" stroke-linecap="round"/>
    <line x1="166.66666666666669" y1="133.8709677419355" x2="195.83333333333334" y2="157.63440860215053" stroke="#00ffff" stroke-width="3" stroke-linecap="round"/>
    <line x1="195.83333333333334" y1="157.63440860215053" x2="225.0" y2="111.50537634408603" stroke="#00ffff" stroke-width="3" stroke-linecap="round"/>
    <line x1="225.0" y1="111.50537634408603" x2="254.16666666666666" y2="119.89247311827958" stroke="#00ffff" stroke-width="3" stroke-linecap="round"/>
    <line x1="254.16666666666666" y1="119.89247311827958" x2="283.33333333333337" y2="143.65591397849462" stroke="#00ffff" stroke-width="3" stroke-linecap="round"/>
    <line x1="283.33333333333337" y1="143.65591397849462" x2="312.5" y2="98.9247311827957" stroke="#00ffff" stroke-width="3" stroke-linecap="round"/>
    <line x1="312.5" y1="98.9247311827957" x2="341.6666666666667" y2="129.67741935483872" stroke="#00ffff" stroke-width="3" stroke-linecap="round"/>
    <line x1="341.6666666666667" y1="129.67741935483872" x2="370.8333333333333" y2="180.0" stroke="#00ffff" stroke-width="3" stroke-linecap="round"/>
    <line x1="370.8333333333333" y1="180.0" x2="400.0" y2="180.0" stroke="#00ffff" stroke-width="3" stroke-linecap="round"/>
    <line x1="400.0" y1="180.0" x2="429.1666666666667" y2="180.0" stroke="#00ffff" stroke-width="3" stroke-linecap="round"/>
    <line x1="429.1666666666667" y1="180.0" x2="458.3333333333333" y2="58.38709677419355" stroke="#00ffff" stroke-width="3" stroke-linecap="round"/>
    <line x1="458.3333333333333" y1="58.38709677419355" x2="487.5" y2="122.68817204301075" stroke="#00ffff" stroke-width="3" stroke-linecap="round"/>
    <line x1="487.5" y1="122.68817204301075" x2="516.6666666666667" y2="79.35483870967742" stroke="#00ffff" stroke-width="3" stroke-linecap="round"/>
    <line x1="516.6666666666667" y1="79.35483870967742" x2="545.8333333333333" y2="50.0" stroke="#00ffff" stroke-width="3" stroke-linecap="round"/>
    <line x1="545.8333333333333" y1="50.0" x2="575.0" y2="50.0" stroke="#00ffff" stroke-width="3" stroke-linecap="round"/>
    <line x1="575.0" y1="50.0" x2="604.1666666666666" y2="97.52688172043011" stroke="#00ffff" stroke-width="3" stroke-linecap="round"/>
    <line x1="604.1666666666666" y1="97.52688172043011" x2="633.3333333333334" y2="115.6989247311828" stroke="#00ffff" stroke-width="3" stroke-linecap="round"/>
    <line x1="633.3333333333334" y1="115.6989247311828" x2="662.5" y2="73.76344086021504" stroke="#00ffff" stroke-width="3" stroke-linecap="round"/>
    <line x1="662.5" y1="73.76344086021504" x2="691.6666666666666" y2="66.7741935483871" stroke="#00ffff" stroke-width="3" stroke-linecap="round"/>
    <line x1="691.6666666666666" y1="66.7741935483871" x2="720.8333333333334" y2="90.53763440860214" stroke="#00ffff" stroke-width="3" stroke-linecap="round"/>
    <line x1="720.8333333333334" y1="90.53763440860214" x2="750.0" y2="110.10752688172043" stroke="#00ffff" stroke-width="3" stroke-linecap="round"/>
    <rect x="46.0" y="104.70967741935485" width="8" height="8" fill="#00ffff" stroke="#0a0e14" stroke-width="1"/>
    <rect x="75.16666666666667" y="69.76344086021504" width="8" height="8" fill="#00ffff" stroke="#0a0e14" stroke-width="1"/>
    <rect x="104.33333333333334" y="103.31182795698925" width="8" height="8" fill="#00ffff" stroke="#0a0e14" stroke-width="1"/>
    <rect x="133.5" y="106.10752688172043" width="8" height="8" fill="#00ffff" stroke="#0a0e14" stroke-width="1"/>
    <rect x="162.66666666666669" y="129.8709677419355" width="8" height="8" fill="#00ffff" stroke="#0a0e14" stroke-width="1"/>
    <rect x="191.83333333333334" y="153.63440860215053" width="8" height="8" fill="#00ffff" stroke="#0a0e14" stroke-width="1"/>
    <rect x="221.0" y="107.50537634408603" width="8" height="8" fill="#00ffff" stroke="#0a0e14" stroke-width="1"/>
    <rect x="250.16666666666666" y="115.89247311827958" width="8" height="8" fill="#00ffff" stroke="#0a0e14" stroke-width="1"/>
    <rect x="279.33333333333337" y="139.65591397849462" width="8" height="8" fill="#00ffff" stroke="#0a0e14" stroke-width="1"/>
    <rect x="308.5" y="94.9247311827957" width="8" height="8" fill="#00ffff" stroke="#0a0e14" stroke-width="1"/>
    <rect x="337.6666666666667" y="125.67741935483872" width="8" height="8" fill="#00ffff" stroke="#0a0e14" stroke-width="1"/>
    <rect x="366.8333333333333" y="176.0" width="8" height="8" fill="#00ffff" stroke="#0a0e14" stroke-width="1"/>
    <rect x="396.0" y="176.0" width="8" height="8" fill="#00ffff" stroke="#0a0e14" stroke-width="1"/>
    <rect x="425.1666666666667" y="176.0" width="8" height="8" fill="#00ffff" stroke="#0a0e14" stroke-width="1"/>
    <rect x="454.3333333333333" y="54.38709677419355" width="8" height="8" fill="#00ffff" stroke="#0a0e14" stroke-width="1"/>
    <rect x="483.5" y="118.68817204301075" width="8" height="8" fill="#00ffff" stroke="#0a0e14" stroke-width="1"/>
    <rect x="512.6666666666667" y="75.35483870967742" width="8" height="8" fill="#00ffff" stroke="#0a0e14" stroke-width="1"/>
    <rect x="541.8333333333333" y="46.0" width="8" height="8" fill="#00ffff" stroke="#0a0e14" stroke-width="1"/>
    <rect x="571.0" y="46.0" width="8" height="8" fill="#00ffff" stroke="#0a0e14" stroke-width="1"/>
    <rect x="600.1666666666666" y="93.52688172043011" width="8" height="8" fill="#00ffff" stroke="#0a0e14" stroke-width="1"/>
    <rect x="629.3333333333334" y="111.6989247311828" width="8" height="8" fill="#00ffff" stroke="#0a0e14" stroke-width="1"/>
    <rect x="658.5" y="69.76344086021504" width="8" height="8" fill="#00ffff" stroke="#0a0e14" stroke-width="1"/>
    <rect x="687.6666666666666" y="62.7741935483871" width="8" height="8" fill="#00ffff" stroke="#0a0e14" stroke-width="1"/>
    <rect x="716.8333333333334" y="86.53763440860214" width="8" height="8" fill="#00ffff" stroke="#0a0e14" stroke-width="1"/>
    <rect x="746.0" y="106.10752688172043" width="8" height="8" fill="#00ffff" stroke="#0a0e14" stroke-width="1"/>
    <text x="50.0" y="205" font-family="'Courier New', 'Courier', monospace"
          font-size="10" fill="#33ff00" text-anchor="middle" transform="rotate(-45, 50.0, 205)">
        10/31
    </text>
    <text x="166.66666666666669" y="205" font-family="'Courier New', 'Courier', monospace"
          font-size="10" fill="#33ff00" text-anchor="middle" transform="rotate(-45, 166.66666666666669, 205)">
        11/06
    </text>
    <text x="283.33333333333337" y="205" font-family="'Courier New', 'Courier', monospace"
          font-size="10" fill="#33ff00" text-anchor="middle" transform="rotate(-45, 283.33333333333337, 205)">
        11/15
    </text>
    <text x="400.0" y="205" font-family="'Courier New', 'Courier', monospace"
          font-size="10" fill="#33ff00" text-anchor="middle" transform="rotate(-45, 400.0, 205)">
        01/03
    </text>
    <text x="516.6666666666667" y="205" font-family="'Courier New', 'Courier', monospace"
          font-size="10" fill="#33ff00" text-anchor="middle" transform="rotate(-45, 516.6666666666667, 205)">
        01/09
    </text>
    <text x="633.3333333333334" y="205" font-family="'Courier New', 'Courier', monospace"
          font-size="10" fill="#33ff00" text-anchor="middle" transform="rotate(-45, 633.3333333333334, 205)">
        01/13
    </text>
    <text x="750.0" y="205" font-family="'Courier New', 'Courier', monospace"
          font-size="10" fill="#33ff00" text-anchor="middle" transform="rotate(-45, 750.0, 205)">
        01/17
    </text>
    <text x="750" y="30" font-family="'Courier New', 'Courier', monospace"
          font-size="12" fill="#33ff00" text-anchor="end">
        AVG: 51.1 │ MAX: 94.0 │ MIN: 1.0
    </text>
</svg>