<svg width="800" height="200" xmlns="http://www.w3.org/2000/svg">
    <defs>
        <linearGradient id="gradient" x1="0%" y1="0%" x2="0%" y2="100%">
            <stop offset="0%" style="stop-color:#00D9FF;stop-opacity:0.3" />
            <stop offset="100%" style="stop-color:#00D9FF;stop-opacity:0.05" />
        </linearGradient>
    </defs>

    <!-- Background -->
    <rect width="800" height="200" fill="#0D1117" rx="6"/>

    <!-- Title -->
    <text x="40" y="25" font-family="'SF Mono', 'Monaco', monospace" font-size="16" font-weight="bold" fill="#C9D1D9">
        Recovery Score
    </text>

    <line x1="40" y1="40.0" x2="760" y2="40.0"
          stroke="#30363D" stroke-width="1" stroke-dasharray="4,4"/>
    <text x="35" y="44.0" font-family="'SF Mono', 'Monaco', monospace"
          font-size="10" fill="#8B949E" text-anchor="end">94</text>

    <line x1="40" y1="70.0" x2="760" y2="70.0"
          stroke="#30363D" stroke-width="1" stroke-dasharray="4,4"/>
    <text x="35" y="74.0" font-family="'SF Mono', 'Monaco', monospace"
          font-size="10" fill="#8B949E" text-anchor="end">70</text>

    <line x1="40" y1="100.0" x2="760" y2="100.0"
          stroke="#30363D" stroke-width="1" stroke-dasharray="4,4"/>
    <text x="35" y="104.0" font-family="'SF Mono', 'Monaco', monospace"
          font-size="10" fill="#8B949E" text-anchor="end">47</text>

    <line x1="40" y1="130.0" x2="760" y2="130.0"
          stroke="#30363D" stroke-width="1" stroke-dasharray="4,4"/>
    <text x="35" y="134.0" font-family="'SF Mono', 'Monaco', monospace"
          font-size="10" fill="#8B949E" text-anchor="end">24</text>

    <line x1="40" y1="160.0" x2="760" y2="160.0"
          stroke="#30363D" stroke-width="1" stroke-dasharray="4,4"/>
    <text x="35" y="164.0" font-family="'SF Mono', 'Monaco', monospace"
          font-size="10" fill="#8B949E" text-anchor="end">0</text>

    <!-- Line -->
    <path d="M 40.0,94.19354838709678 L 70.0,61.93548387096773 L 100.0,92.90322580645162 L 130.0,95.48387096774194 L 160.0,117.41935483870967 L 190.0,139.3548387096774 L 220.0,96.7741935483871 L 250.0,104.51612903225806 L 280.0,126.45161290322581 L 310.0,85.16129032258064 L 340.0,113.54838709677419 L 370.0,160.0 L 400.0,160.0 L 430.0,160.0 L 460.0,47.741935483870975 L 490.0,107.09677419354838 L 520.0,67.09677419354838 L 550.0,40.0 L 580.0,40.0 L 610.0,83.87096774193549 L 640.0,100.64516129032258 L 670.0,61.93548387096773 L 700.0,55.483870967741936 L 730.0,77.41935483870967 L 760.0,95.48387096774194" stroke="#06D6A0" stroke-width="2" fill="none" stroke-linecap="round" stroke-linejoin="round"/>

    <!-- Area under line -->
    <path d="M 40.0,94.19354838709678 L 70.0,61.93548387096773 L 100.0,92.90322580645162 L 130.0,95.48387096774194 L 160.0,117.41935483870967 L 190.0,139.3548387096774 L 220.0,96.7741935483871 L 250.0,104.51612903225806 L 280.0,126.45161290322581 L 310.0,85.16129032258064 L 340.0,113.54838709677419 L 370.0,160.0 L 400.0,160.0 L 430.0,160.0 L 460.0,47.741935483870975 L 490.0,107.09677419354838 L 520.0,67.09677419354838 L 550.0,40.0 L 580.0,40.0 L 610.0,83.87096774193549 L 640.0,100.64516129032258 L 670.0,61.93548387096773 L 700.0,55.483870967741936 L 730.0,77.41935483870967 L 760.0,95.48387096774194 L 760.0,160 L 40.0,160 Z"
          fill="url(#gradient)" opacity="0.3"/>

    <circle cx="40.0" cy="94.19354838709678" r="3" fill="#06D6A0" opacity="0.8"/>
    <circle cx="70.0" cy="61.93548387096773" r="3" fill="#06D6A0" opacity="0.8"/>
    <circle cx="100.0" cy="92.90322580645162" r="3" fill="#06D6A0" opacity="0.8"/>
    <circle cx="130.0" cy="95.48387096774194" r="3" fill="#06D6A0" opacity="0.8"/>
    <circle cx="160.0" cy="117.41935483870967" r="3" fill="#06D6A0" opacity="0.8"/>
    <circle cx="190.0" cy="139.3548387096774" r="3" fill="#06D6A0" opacity="0.8"/>
    <circle cx="220.0" cy="96.7741935483871" r="3" fill="#06D6A0" opacity="0.8"/>
    <circle cx="250.0" cy="104.51612903225806" r="3" fill="#06D6A0" opacity="0.8"/>
    <circle cx="280.0" cy="126.45161290322581" r="3" fill="#06D6A0" opacity="0.8"/>
    <circle cx="310.0" cy="85.16129032258064" r="3" fill="#06D6A0" opacity="0.8"/>
    <circle cx="340.0" cy="113.54838709677419" r="3" fill="#06D6A0" opacity="0.8"/>
    <circle cx="370.0" cy="160.0" r="3" fill="#06D6A0" opacity="0.8"/>
    <circle cx="400.0" cy="160.0" r="3" fill="#06D6A0" opacity="0.8"/>
    <circle cx="430.0" cy="160.0" r="3" fill="#06D6A0" opacity="0.8"/>
    <circle cx="460.0" cy="47.741935483870975" r="3" fill="#06D6A0" opacity="0.8"/>
    <circle cx="490.0" cy="107.09677419354838" r="3" fill="#06D6A0" opacity="0.8"/>
    <circle cx="520.0" cy="67.09677419354838" r="3" fill="#06D6A0" opacity="0.8"/>
    <circle cx="550.0" cy="40.0" r="3" fill="#06D6A0" opacity="0.8"/>
    <circle cx="580.0" cy="40.0" r="3" fill="#06D6A0" opacity="0.8"/>
    <circle cx="610.0" cy="83.87096774193549" r="3" fill="#06D6A0" opacity="0.8"/>
    <circle cx="640.0" cy="100.64516129032258" r="3" fill="#06D6A0" opacity="0.8"/>
    <circle cx="670.0" cy="61.93548387096773" r="3" fill="#06D6A0" opacity="0.8"/>
    <circle cx="700.0" cy="55.483870967741936" r="3" fill="#06D6A0" opacity="0.8"/>
    <circle cx="730.0" cy="77.41935483870967" r="3" fill="#06D6A0" opacity="0.8"/>
    <circle cx="760.0" cy="95.48387096774194" r="3" fill="#06D6A0" opacity="0.8"/>
</svg>