<svg width="800" height="250" xmlns="http://www.w3.org/2000/svg">
    <!-- Background -->
    <rect width="800" height="250" fill="#0a0e14"/>

    <!-- Border -->
    <rect x="2" y="2" width="796" height="246" fill="none" stroke="#33ff00" stroke-width="2"/>

    <!-- Title -->
    <text x="50" y="30" font-family="'Courier New', 'Courier', monospace" font-size="18" font-weight="bold" fill="#33ff00">
        ┌─ SLEEP DURATION (HOURS) ─┐
    </text>

    <line x1="50" y1="50.0" x2="750" y2="50.0"
          stroke="#1a5f1a" stroke-width="1" stroke-dasharray="5,5" opacity="0.5"/>
    <text x="40" y="54.0" font-family="'Courier New', 'Courier', monospace"
          font-size="12" fill="#33ff00" text-anchor="end">10.8</text>
    <line x1="50" y1="82.5" x2="750" y2="82.5"
          stroke="#1a5f1a" stroke-width="1" stroke-dasharray="5,5" opacity="0.5"/>
    <text x="40" y="86.5" font-family="'Courier New', 'Courier', monospace"
          font-size="12" fill="#33ff00" text-anchor="end">8.4</text>
    <line x1="50" y1="115.0" x2="750" y2="115.0"
          stroke="#1a5f1a" stroke-width="1" stroke-dasharray="5,5" opacity="0.5"/>
    <text x="40" y="119.0" font-family="'Courier New', 'Courier', monospace"
          font-size="12" fill="#33ff00" text-anchor="end">6.0</text>
    <line x1="50" y1="147.5" x2="750" y2="147.5"
          stroke="#1a5f1a" stroke-width="1" stroke-dasharray="5,5" opacity="0.5"/>
    <text x="40" y="151.5" font-family="'Courier New', 'Courier', monospace"
          font-size="12" fill="#33ff00" text-anchor="end">3.6</text>
    <line x1="50" y1="180.0" x2="750" y2="180.0"
          stroke="#1a5f1a" stroke-width="1" stroke-dasharray="5,5" opacity="0.5"/>
    <text x="40" y="184.0" font-family="'Courier New', 'Courier', monospace"
          font-size="12" fill="#33ff00" text-anchor="end">1.2</text>
    <!-- Y-axis -->
    <line x1="50" y1="50" x2="50" y2="180"
          stroke="#33ff00" stroke-width="2"/>
    <!-- X-axis -->
    <line x1="50" y1="180" x2="750" y2="180"
          stroke="#33ff00" stroke-width="2"/>
    <line x1="50.0" y1="65.68843655013134" x2="79.16666666666667" y2="91.26101475510514" stroke="#33ff00" stroke-width="3" stroke-linecap="round"/>
    <line x1="79.16666666666667" y1="91.26101475510514" x2="108.33333333333334" y2="175.4190345700858" stroke="#33ff00" stroke-width="3" stroke-linecap="round"/>
    <line x1="108.33333333333334" y1="175.4190345700858" x2="137.5" y2="99.99849414470143" stroke="#33ff00" stroke-width="3" stroke-linecap="round"/>
    <line x1="137.5" y1="99.99849414470143" x2="166.66666666666669" y2="101.71086690605298" stroke="#33ff00" stroke-width="3" stroke-linecap="round"/>
    <line x1="166.66666666666669" y1="101.71086690605298" x2="195.83333333333334" y2="60.90782842725679" stroke="#33ff00" stroke-width="3" stroke-linecap="round"/>
    <line x1="195.83333333333334" y1="60.90782842725679" x2="225.0" y2="73.53317373284582" stroke="#33ff00" stroke-width="3" stroke-linecap="round"/>
    <line x1="225.0" y1="73.53317373284582" x2="254.16666666666666" y2="50.0" stroke="#33ff00" stroke-width="3" stroke-linecap="round"/>
    <line x1="254.16666666666666" y1="50.0" x2="283.33333333333337" y2="66.01401831679155" stroke="#33ff00" stroke-width="3" stroke-linecap="round"/>
    <line x1="283.33333333333337" y1="66.01401831679155" x2="312.5" y2="96.1097777446922" stroke="#33ff00" stroke-width="3" stroke-linecap="round"/>
    <line x1="312.5" y1="96.1097777446922" x2="341.6666666666667" y2="131.301022952722" stroke="#33ff00" stroke-width="3" stroke-linecap="round"/>
    <line x1="341.6666666666667" y1="131.301022952722" x2="370.8333333333333" y2="180.0" stroke="#33ff00" stroke-width="3" stroke-linecap="round"/>
    <line x1="370.8333333333333" y1="180.0" x2="400.0" y2="100.28971186114521" stroke="#33ff00" stroke-width="3" stroke-linecap="round"/>
    <line x1="400.0" y1="100.28971186114521" x2="429.1666666666667" y2="62.7365713804664" stroke="#33ff00" stroke-width="3" stroke-linecap="round"/>
    <line x1="429.1666666666667" y1="62.7365713804664" x2="458.3333333333333" y2="81.19221690979529" stroke="#33ff00" stroke-width="3" stroke-linecap="round"/>
    <line x1="458.3333333333333" y1="81.19221690979529" x2="487.5" y2="95.51998768570617" stroke="#33ff00" stroke-width="3" stroke-linecap="round"/>
    <line x1="487.5" y1="95.51998768570617" x2="516.6666666666667" y2="72.840913463064" stroke="#33ff00" stroke-width="3" stroke-linecap="round"/>
    <line x1="516.6666666666667" y1="72.840913463064" x2="545.8333333333333" y2="98.17447193977709" stroke="#33ff00" stroke-width="3" stroke-linecap="round"/>
    <line x1="545.8333333333333" y1="98.17447193977709" x2="575.0" y2="93.67972011207944" stroke="#33ff00" stroke-width="3" stroke-linecap="round"/>
    <line x1="575.0" y1="93.67972011207944" x2="604.1666666666666" y2="102.10947789936155" stroke="#33ff00" stroke-width="3" stroke-linecap="round"/>
    <line x1="604.1666666666666" y1="102.10947789936155" x2="633.3333333333334" y2="50.26644502782287" stroke="#33ff00" stroke-width="3" stroke-linecap="round"/>
    <line x1="633.3333333333334" y1="50.26644502782287" x2="662.5" y2="77.33199359765085" stroke="#33ff00" stroke-width="3" stroke-linecap="round"/>
    <line x1="662.5" y1="77.33199359765085" x2="691.6666666666666" y2="64.90353721518909" stroke="#33ff00" stroke-width="3" stroke-linecap="round"/>
    <line x1="691.6666666666666" y1="64.90353721518909" x2="720.8333333333334" y2="106.15695756015589" stroke="#33ff00" stroke-width="3" stroke-linecap="round"/>
    <line x1="720.8333333333334" y1="106.15695756015589" x2="750.0" y2="77.38099946080294" stroke="#33ff00" stroke-width="3" stroke-linecap="round"/>
    <rect x="46.0" y="61.68843655013134" width="8" height="8" fill="#33ff00" stroke="#0a0e14" stroke-width="1"/>
    <rect x="75.16666666666667" y="87.26101475510514" width="8" height="8" fill="#33ff00" stroke="#0a0e14" stroke-width="1"/>
    <rect x="104.33333333333334" y="171.4190345700858" width="8" height="8" fill="#33ff00" stroke="#0a0e14" stroke-width="1"/>
    <rect x="133.5" y="95.99849414470143" width="8" height="8" fill="#33ff00" stroke="#0a0e14" stroke-width="1"/>
    <rect x="162.66666666666669" y="97.71086690605298" width="8" height="8" fill="#33ff00" stroke="#0a0e14" stroke-width="1"/>
    <rect x="191.83333333333334" y="56.90782842725679" width="8" height="8" fill="#33ff00" stroke="#0a0e14" stroke-width="1"/>
    <rect x="221.0" y="69.53317373284582" width="8" height="8" fill="#33ff00" stroke="#0a0e14" stroke-width="1"/>
    <rect x="250.16666666666666" y="46.0" width="8" height="8" fill="#33ff00" stroke="#0a0e14" stroke-width="1"/>
    <rect x="279.33333333333337" y="62.01401831679155" width="8" height="8" fill="#33ff00" stroke="#0a0e14" stroke-width="1"/>
    <rect x="308.5" y="92.1097777446922" width="8" height="8" fill="#33ff00" stroke="#0a0e14" stroke-width="1"/>
    <rect x="337.6666666666667" y="127.30102295272201" width="8" height="8" fill="#33ff00" stroke="#0a0e14" stroke-width="1"/>
    <rect x="366.8333333333333" y="176.0" width="8" height="8" fill="#33ff00" stroke="#0a0e14" stroke-width="1"/>
    <rect x="396.0" y="96.28971186114521" width="8" height="8" fill="#33ff00" stroke="#0a0e14" stroke-width="1"/>
    <rect x="425.1666666666667" y="58.7365713804664" width="8" height="8" fill="#33ff00" stroke="#0a0e14" stroke-width="1"/>
    <rect x="454.3333333333333" y="77.19221690979529" width="8" height="8" fill="#33ff00" stroke="#0a0e14" stroke-width="1"/>
    <rect x="483.5" y="91.51998768570617" width="8" height="8" fill="#33ff00" stroke="#0a0e14" stroke-width="1"/>
    <rect x="512.6666666666667" y="68.840913463064" width="8" height="8" fill="#33ff00" stroke="#0a0e14" stroke-width="1"/>
    <rect x="541.8333333333333" y="94.17447193977709" width="8" height="8" fill="#33ff00" stroke="#0a0e14" stroke-width="1"/>
    <rect x="571.0" y="89.67972011207944" width="8" height="8" fill="#33ff00" stroke="#0a0e14" stroke-width="1"/>
    <rect x="600.1666666666666" y="98.10947789936155" width="8" height="8" fill="#33ff00" stroke="#0a0e14" stroke-width="1"/>
    <rect x="629.3333333333334" y="46.26644502782287" width="8" height="8" fill="#33ff00" stroke="#0a0e14" stroke-width="1"/>
    <rect x="658.5" y="73.33199359765085" width="8" height="8" fill="#33ff00" stroke="#0a0e14" stroke-width="1"/>
    <rect x="687.6666666666666" y="60.90353721518909" width="8" height="8" fill="#33ff00" stroke="#0a0e14" stroke-width="1"/>
    <rect x="716.8333333333334" y="102.15695756015589" width="8" height="8" fill="#33ff00" stroke="#0a0e14" stroke-width="1"/>
    <rect x="746.0" y="73.38099946080294" width="8" height="8" fill="#33ff00" stroke="#0a0e14" stroke-width="1"/>
    <text x="50.0" y="205" font-family="'Courier New', 'Courier', monospace"
          font-size="10" fill="#33ff00" text-anchor="middle" transform="rotate(-45, 50.0, 205)">
        11/02
    </text>
    <text x="166.66666666666669" y="205" font-family="'Courier New', 'Courier', monospace"
          font-size="10" fill="#33ff00" text-anchor="middle" transform="rotate(-45, 166.66666666666669, 205)">
        11/07
    </text>
    <text x="283.33333333333337" y="205" font-family="'Courier New', 'Courier', monospace"
          font-size="10" fill="#33ff00" text-anchor="middle" transform="rotate(-45, 283.33333333333337, 205)">
        11/16
    </text>
    <text x="400.0" y="205" font-family="'Courier New', 'Courier', monospace"
          font-size="10" fill="#33ff00" text-anchor="middle" transform="rotate(-45, 400.0, 205)">
        01/03
    </text>
    <text x="516.6666666666667" y="205" font-family="'Courier New', 'Courier', monospace"
          font-size="10" fill="#33ff00" text-anchor="middle" transform="rotate(-45, 516.6666666666667, 205)">
        01/09
    </text>
    <text x="633.3333333333334" y="205" font-family="'Courier New', 'Courier', monospace"
          font-size="10" fill="#33ff00" text-anchor="middle" transform="rotate(-45, 633.3333333333334, 205)">
        01/13
    </text>
    <text x="750.0" y="205" font-family="'Courier New', 'Courier', monospace"
          font-size="10" fill="#33ff00" text-anchor="middle" transform="rotate(-45, 750.0, 205)">
        01/17
    </text>
    <text x="750" y="30" font-family="'Courier New', 'Courier', monospace"
          font-size="12" fill="#33ff00" text-anchor="end">
        AVG: 7.8 │ MAX: 10.8 │ MIN: 1.2
    </text>
</svg>