<svg width="800" height="250" xmlns="http://www.w3.org/2000/svg">
    <!-- Background -->
    <rect width="800" height="250" fill="#0a0e14"/>

    <!-- Border -->
    <rect x="2" y="2" width="796" height="246" fill="none" stroke="#33ff00" stroke-width="2"/>

    <!-- Title -->
    <text x="50" y="30" font-family="'Courier New', 'Courier', monospace" font-size="18" font-weight="bold" fill="#33ff00">
        ┌─ SLEEP PERFORMANCE (%) ─┐
    </text>

    <line x1="50" y1="50.0" x2="750" y2="50.0"
          stroke="#1a5f1a" stroke-width="1" stroke-dasharray="5,5" opacity="0.5"/>
    <text x="40" y="54.0" font-family="'Courier New', 'Courier', monospace"
          font-size="12" fill="#33ff00" text-anchor="end">88.0</text>
    <line x1="50" y1="82.5" x2="750" y2="82.5"
          stroke="#1a5f1a" stroke-width="1" stroke-dasharray="5,5" opacity="0.5"/>
    <text x="40" y="86.5" font-family="'Courier New', 'Courier', monospace"
          font-size="12" fill="#33ff00" text-anchor="end">72.5</text>
    <line x1="50" y1="115.0" x2="750" y2="115.0"
          stroke="#1a5f1a" stroke-width="1" stroke-dasharray="5,5" opacity="0.5"/>
    <text x="40" y="119.0" font-family="'Courier New', 'Courier', monospace"
          font-size="12" fill="#33ff00" text-anchor="end">57.0</text>
    <line x1="50" y1="147.5" x2="750" y2="147.5"
          stroke="#1a5f1a" stroke-width="1" stroke-dasharray="5,5" opacity="0.5"/>
    <text x="40" y="151.5" font-family="'Courier New', 'Courier', monospace"
          font-size="12" fill="#33ff00" text-anchor="end">41.5</text>
    <line x1="50" y1="180.0" x2="750" y2="180.0"
          stroke="#1a5f1a" stroke-width="1" stroke-dasharray="5,5" opacity="0.5"/>
    <text x="40" y="184.0" font-family="'Courier New', 'Courier', monospace"
          font-size="12" fill="#33ff00" text-anchor="end">26.0</text>
    <!-- Y-axis -->
    <line x1="50" y1="50" x2="50" y2="180"
          stroke="#33ff00" stroke-width="2"/>
    <!-- X-axis -->
    <line x1="50" y1="180" x2="750" y2="180"
          stroke="#33ff00" stroke-width="2"/>
    <line x1="50.0" y1="62.58064516129032" x2="79.16666666666667" y2="77.25806451612904" stroke="#ff00ff" stroke-width="3" stroke-linecap="round"/>
    <line x1="79.16666666666667" y1="77.25806451612904" x2="108.33333333333334" y2="180.0" stroke="#ff00ff" stroke-width="3" stroke-linecap="round"/>
    <line x1="108.33333333333334" y1="180.0" x2="137.5" y2="50.0" stroke="#ff00ff" stroke-width="3" stroke-linecap="round"/>
    <line x1="137.5" y1="50.0" x2="166.66666666666669" y2="79.35483870967742" stroke="#ff00ff" stroke-width="3" stroke-linecap="round"/>
    <line x1="166.66666666666669" y1="79.35483870967742" x2="195.83333333333334" y2="73.06451612903226" stroke="#ff00ff" stroke-width="3" stroke-linecap="round"/>
    <line x1="195.83333333333334" y1="73.06451612903226" x2="225.0" y2="75.16129032258065" stroke="#ff00ff" stroke-width="3" stroke-linecap="round"/>
    <line x1="225.0" y1="75.16129032258065" x2="254.16666666666666" y2="50.0" stroke="#ff00ff" stroke-width="3" stroke-linecap="round"/>
    <line x1="254.16666666666666" y1="50.0" x2="283.33333333333337" y2="70.96774193548387" stroke="#ff00ff" stroke-width="3" stroke-linecap="round"/>
    <line x1="283.33333333333337" y1="70.96774193548387" x2="312.5" y2="66.7741935483871" stroke="#ff00ff" stroke-width="3" stroke-linecap="round"/>
    <line x1="312.5" y1="66.7741935483871" x2="341.6666666666667" y2="100.3225806451613" stroke="#ff00ff" stroke-width="3" stroke-linecap="round"/>
    <line x1="341.6666666666667" y1="100.3225806451613" x2="370.8333333333333" y2="180.0" stroke="#ff00ff" stroke-width="3" stroke-linecap="round"/>
    <line x1="370.8333333333333" y1="180.0" x2="400.0" y2="167.41935483870967" stroke="#ff00ff" stroke-width="3" stroke-linecap="round"/>
    <line x1="400.0" y1="167.41935483870967" x2="429.1666666666667" y2="89.83870967741935" stroke="#ff00ff" stroke-width="3" stroke-linecap="round"/>
    <line x1="429.1666666666667" y1="89.83870967741935" x2="458.3333333333333" y2="66.7741935483871" stroke="#ff00ff" stroke-width="3" stroke-linecap="round"/>
    <line x1="458.3333333333333" y1="66.7741935483871" x2="487.5" y2="77.25806451612904" stroke="#ff00ff" stroke-width="3" stroke-linecap="round"/>
    <line x1="487.5" y1="77.25806451612904" x2="516.6666666666667" y2="66.7741935483871" stroke="#ff00ff" stroke-width="3" stroke-linecap="round"/>
    <line x1="516.6666666666667" y1="66.7741935483871" x2="545.8333333333333" y2="62.58064516129032" stroke="#ff00ff" stroke-width="3" stroke-linecap="round"/>
    <line x1="545.8333333333333" y1="62.58064516129032" x2="575.0" y2="60.483870967741936" stroke="#ff00ff" stroke-width="3" stroke-linecap="round"/>
    <line x1="575.0" y1="60.483870967741936" x2="604.1666666666666" y2="87.74193548387096" stroke="#ff00ff" stroke-width="3" stroke-linecap="round"/>
    <line x1="604.1666666666666" y1="87.74193548387096" x2="633.3333333333334" y2="83.54838709677419" stroke="#ff00ff" stroke-width="3" stroke-linecap="round"/>
    <line x1="633.3333333333334" y1="83.54838709677419" x2="662.5" y2="75.16129032258065" stroke="#ff00ff" stroke-width="3" stroke-linecap="round"/>
    <line x1="662.5" y1="75.16129032258065" x2="691.6666666666666" y2="60.483870967741936" stroke="#ff00ff" stroke-width="3" stroke-linecap="round"/>
    <line x1="691.6666666666666" y1="60.483870967741936" x2="720.8333333333334" y2="79.35483870967742" stroke="#ff00ff" stroke-width="3" stroke-linecap="round"/>
    <line x1="720.8333333333334" y1="79.35483870967742" x2="750.0" y2="68.87096774193549" stroke="#ff00ff" stroke-width="3" stroke-linecap="round"/>
    <rect x="46.0" y="58.58064516129032" width="8" height="8" fill="#ff00ff" stroke="#0a0e14" stroke-width="1"/>
    <rect x="75.16666666666667" y="73.25806451612904" width="8" height="8" fill="#ff00ff" stroke="#0a0e14" stroke-width="1"/>
    <rect x="104.33333333333334" y="176.0" width="8" height="8" fill="#ff00ff" stroke="#0a0e14" stroke-width="1"/>
    <rect x="133.5" y="46.0" width="8" height="8" fill="#ff00ff" stroke="#0a0e14" stroke-width="1"/>
    <rect x="162.66666666666669" y="75.35483870967742" width="8" height="8" fill="#ff00ff" stroke="#0a0e14" stroke-width="1"/>
    <rect x="191.83333333333334" y="69.06451612903226" width="8" height="8" fill="#ff00ff" stroke="#0a0e14" stroke-width="1"/>
    <rect x="221.0" y="71.16129032258065" width="8" height="8" fill="#ff00ff" stroke="#0a0e14" stroke-width="1"/>
    <rect x="250.16666666666666" y="46.0" width="8" height="8" fill="#ff00ff" stroke="#0a0e14" stroke-width="1"/>
    <rect x="279.33333333333337" y="66.96774193548387" width="8" height="8" fill="#ff00ff" stroke="#0a0e14" stroke-width="1"/>
    <rect x="308.5" y="62.7741935483871" width="8" height="8" fill="#ff00ff" stroke="#0a0e14" stroke-width="1"/>
    <rect x="337.6666666666667" y="96.3225806451613" width="8" height="8" fill="#ff00ff" stroke="#0a0e14" stroke-width="1"/>
    <rect x="366.8333333333333" y="176.0" width="8" height="8" fill="#ff00ff" stroke="#0a0e14" stroke-width="1"/>
    <rect x="396.0" y="163.41935483870967" width="8" height="8" fill="#ff00ff" stroke="#0a0e14" stroke-width="1"/>
    <rect x="425.1666666666667" y="85.83870967741935" width="8" height="8" fill="#ff00ff" stroke="#0a0e14" stroke-width="1"/>
    <rect x="454.3333333333333" y="62.7741935483871" width="8" height="8" fill="#ff00ff" stroke="#0a0e14" stroke-width="1"/>
    <rect x="483.5" y="73.25806451612904" width="8" height="8" fill="#ff00ff" stroke="#0a0e14" stroke-width="1"/>
    <rect x="512.6666666666667" y="62.7741935483871" width="8" height="8" fill="#ff00ff" stroke="#0a0e14" stroke-width="1"/>
    <rect x="541.8333333333333" y="58.58064516129032" width="8" height="8" fill="#ff00ff" stroke="#0a0e14" stroke-width="1"/>
    <rect x="571.0" y="56.483870967741936" width="8" height="8" fill="#ff00ff" stroke="#0a0e14" stroke-width="1"/>
    <rect x="600.1666666666666" y="83.74193548387096" width="8" height="8" fill="#ff00ff" stroke="#0a0e14" stroke-width="1"/>
    <rect x="629.3333333333334" y="79.54838709677419" width="8" height="8" fill="#ff00ff" stroke="#0a0e14" stroke-width="1"/>
    <rect x="658.5" y="71.16129032258065" width="8" height="8" fill="#ff00ff" stroke="#0a0e14" stroke-width="1"/>
    <rect x="687.6666666666666" y="56.483870967741936" width="8" height="8" fill="#ff00ff" stroke="#0a0e14" stroke-width="1"/>
    <rect x="716.8333333333334" y="75.35483870967742" width="8" height="8" fill="#ff00ff" stroke="#0a0e14" stroke-width="1"/>
    <rect x="746.0" y="64.87096774193549" width="8" height="8" fill="#ff00ff" stroke="#0a0e14" stroke-width="1"/>
    <text x="50.0" y="205" font-family="'Courier New', 'Courier', monospace"
          font-size="10" fill="#33ff00" text-anchor="middle" transform="rotate(-45, 50.0, 205)">
        11/02
    </text>
    <text x="166.66666666666669" y="205" font-family="'Courier New', 'Courier', monospace"
          font-size="10" fill="#33ff00" text-anchor="middle" transform="rotate(-45, 166.66666666666669, 205)">
        11/07
    </text>
    <text x="283.33333333333337" y="205" font-family="'Courier New', 'Courier', monospace"
          font-size="10" fill="#33ff00" text-anchor="middle" transform="rotate(-45, 283.33333333333337, 205)">
        11/16
    </text>
    <text x="400.0" y="205" font-family="'Courier New', 'Courier', monospace"
          font-size="10" fill="#33ff00" text-anchor="middle" transform="rotate(-45, 400.0, 205)">
        01/03
    </text>
    <text x="516.6666666666667" y="205" font-family="'Courier New', 'Courier', monospace"
          font-size="10" fill="#33ff00" text-anchor="middle" transform="rotate(-45, 516.6666666666667, 205)">
        01/09
    </text>
    <text x="633.3333333333334" y="205" font-family="'Courier New', 'Courier', monospace"
          font-size="10" fill="#33ff00" text-anchor="middle" transform="rotate(-45, 633.3333333333334, 205)">
        01/13
    </text>
    <text x="750.0" y="205" font-family="'Courier New', 'Courier', monospace"
          font-size="10" fill="#33ff00" text-anchor="middle" transform="rotate(-45, 750.0, 205)">
        01/17
    </text>
    <text x="750" y="30" font-family="'Courier New', 'Courier', monospace"
          font-size="12" fill="#33ff00" text-anchor="end">
        AVG: 71.6 │ MAX: 88.0 │ MIN: 26.0
    </text>
</svg>