<svg width="800" height="200" xmlns="http://www.w3.org/2000/svg">
    <defs>
        <linearGradient id="gradient" x1="0%" y1="0%" x2="0%" y2="100%">
            <stop offset="0%" style="stop-color:#00D9FF;stop-opacity:0.3" />
            <stop offset="100%" style="stop-color:#00D9FF;stop-opacity:0.05" />
        </linearGradient>
    </defs>

    <!-- Background -->
    <rect width="800" height="200" fill="#0D1117" rx="6"/>

    <!-- Title -->
    <text x="40" y="25" font-family="'SF Mono', 'Monaco', monospace" font-size="16" font-weight="bold" fill="#C9D1D9">
        Sleep Performance (%)
    </text>

    <line x1="40" y1="40.0" x2="760" y2="40.0"
          stroke="#30363D" stroke-width="1" stroke-dasharray="4,4"/>
    <text x="35" y="44.0" font-family="'SF Mono', 'Monaco', monospace"
          font-size="10" fill="#8B949E" text-anchor="end">88</text>

    <line x1="40" y1="70.0" x2="760" y2="70.0"
          stroke="#30363D" stroke-width="1" stroke-dasharray="4,4"/>
    <text x="35" y="74.0" font-family="'SF Mono', 'Monaco', monospace"
          font-size="10" fill="#8B949E" text-anchor="end">66</text>

    <line x1="40" y1="100.0" x2="760" y2="100.0"
          stroke="#30363D" stroke-width="1" stroke-dasharray="4,4"/>
    <text x="35" y="104.0" font-family="'SF Mono', 'Monaco', monospace"
          font-size="10" fill="#8B949E" text-anchor="end">44</text>

    <line x1="40" y1="130.0" x2="760" y2="130.0"
          stroke="#30363D" stroke-width="1" stroke-dasharray="4,4"/>
    <text x="35" y="134.0" font-family="'SF Mono', 'Monaco', monospace"
          font-size="10" fill="#8B949E" text-anchor="end">22</text>

    <line x1="40" y1="160.0" x2="760" y2="160.0"
          stroke="#30363D" stroke-width="1" stroke-dasharray="4,4"/>
    <text x="35" y="164.0" font-family="'SF Mono', 'Monaco', monospace"
          font-size="10" fill="#8B949E" text-anchor="end">0</text>

    <!-- Line -->
    <path d="M 40.0,51.61290322580645 L 70.0,65.16129032258065 L 100.0,160.0 L 130.0,40.0 L 160.0,67.09677419354838 L 190.0,61.29032258064515 L 220.0,63.22580645161291 L 250.0,40.0 L 280.0,59.35483870967741 L 310.0,55.483870967741936 L 340.0,86.45161290322581 L 370.0,160.0 L 400.0,148.38709677419354 L 430.0,76.77419354838709 L 460.0,55.483870967741936 L 490.0,65.16129032258065 L 520.0,55.483870967741936 L 550.0,51.61290322580645 L 580.0,49.67741935483872 L 610.0,74.83870967741935 L 640.0,70.96774193548387 L 670.0,63.22580645161291 L 700.0,49.67741935483872 L 730.0,67.09677419354838 L 760.0,57.41935483870968" stroke="#4CC9F0" stroke-width="2" fill="none" stroke-linecap="round" stroke-linejoin="round"/>

    <!-- Area under line -->
    <path d="M 40.0,51.61290322580645 L 70.0,65.16129032258065 L 100.0,160.0 L 130.0,40.0 L 160.0,67.09677419354838 L 190.0,61.29032258064515 L 220.0,63.22580645161291 L 250.0,40.0 L 280.0,59.35483870967741 L 310.0,55.483870967741936 L 340.0,86.45161290322581 L 370.0,160.0 L 400.0,148.38709677419354 L 430.0,76.77419354838709 L 460.0,55.483870967741936 L 490.0,65.16129032258065 L 520.0,55.483870967741936 L 550.0,51.61290322580645 L 580.0,49.67741935483872 L 610.0,74.83870967741935 L 640.0,70.96774193548387 L 670.0,63.22580645161291 L 700.0,49.67741935483872 L 730.0,67.09677419354838 L 760.0,57.41935483870968 L 760.0,160 L 40.0,160 Z"
          fill="url(#gradient)" opacity="0.3"/>

    <circle cx="40.0" cy="51.61290322580645" r="3" fill="#4CC9F0" opacity="0.8"/>
    <circle cx="70.0" cy="65.16129032258065" r="3" fill="#4CC9F0" opacity="0.8"/>
    <circle cx="100.0" cy="160.0" r="3" fill="#4CC9F0" opacity="0.8"/>
    <circle cx="130.0" cy="40.0" r="3" fill="#4CC9F0" opacity="0.8"/>
    <circle cx="160.0" cy="67.09677419354838" r="3" fill="#4CC9F0" opacity="0.8"/>
    <circle cx="190.0" cy="61.29032258064515" r="3" fill="#4CC9F0" opacity="0.8"/>
    <circle cx="220.0" cy="63.22580645161291" r="3" fill="#4CC9F0" opacity="0.8"/>
    <circle cx="250.0" cy="40.0" r="3" fill="#4CC9F0" opacity="0.8"/>
    <circle cx="280.0" cy="59.35483870967741" r="3" fill="#4CC9F0" opacity="0.8"/>
    <circle cx="310.0" cy="55.483870967741936" r="3" fill="#4CC9F0" opacity="0.8"/>
    <circle cx="340.0" cy="86.45161290322581" r="3" fill="#4CC9F0" opacity="0.8"/>
    <circle cx="370.0" cy="160.0" r="3" fill="#4CC9F0" opacity="0.8"/>
    <circle cx="400.0" cy="148.38709677419354" r="3" fill="#4CC9F0" opacity="0.8"/>
    <circle cx="430.0" cy="76.77419354838709" r="3" fill="#4CC9F0" opacity="0.8"/>
    <circle cx="460.0" cy="55.483870967741936" r="3" fill="#4CC9F0" opacity="0.8"/>
    <circle cx="490.0" cy="65.16129032258065" r="3" fill="#4CC9F0" opacity="0.8"/>
    <circle cx="520.0" cy="55.483870967741936" r="3" fill="#4CC9F0" opacity="0.8"/>
    <circle cx="550.0" cy="51.61290322580645" r="3" fill="#4CC9F0" opacity="0.8"/>
    <circle cx="580.0" cy="49.67741935483872" r="3" fill="#4CC9F0" opacity="0.8"/>
    <circle cx="610.0" cy="74.83870967741935" r="3" fill="#4CC9F0" opacity="0.8"/>
    <circle cx="640.0" cy="70.96774193548387" r="3" fill="#4CC9F0" opacity="0.8"/>
    <circle cx="670.0" cy="63.22580645161291" r="3" fill="#4CC9F0" opacity="0.8"/>
    <circle cx="700.0" cy="49.67741935483872" r="3" fill="#4CC9F0" opacity="0.8"/>
    <circle cx="730.0" cy="67.09677419354838" r="3" fill="#4CC9F0" opacity="0.8"/>
    <circle cx="760.0" cy="57.41935483870968" r="3" fill="#4CC9F0" opacity="0.8"/>
</svg>