<svg width="800" height="250" xmlns="http://www.w3.org/2000/svg">
    <!-- Background -->
    <rect width="800" height="250" fill="#0a0e14"/>

    <!-- Border -->
    <rect x="2" y="2" width="796" height="246" fill="none" stroke="#33ff00" stroke-width="2"/>

    <!-- Title -->
    <text x="50" y="30" font-family="'Courier New', 'Courier', monospace" font-size="18" font-weight="bold" fill="#33ff00">
        ┌─ STRAIN SCORE ─┐
    </text>

    <line x1="50" y1="50.0" x2="750" y2="50.0"
          stroke="#1a5f1a" stroke-width="1" stroke-dasharray="5,5" opacity="0.5"/>
    <text x="40" y="54.0" font-family="'Courier New', 'Courier', monospace"
          font-size="12" fill="#33ff00" text-anchor="end">17.7</text>
    <line x1="50" y1="82.5" x2="750" y2="82.5"
          stroke="#1a5f1a" stroke-width="1" stroke-dasharray="5,5" opacity="0.5"/>
    <text x="40" y="86.5" font-family="'Courier New', 'Courier', monospace"
          font-size="12" fill="#33ff00" text-anchor="end">13.3</text>
    <line x1="50" y1="115.0" x2="750" y2="115.0"
          stroke="#1a5f1a" stroke-width="1" stroke-dasharray="5,5" opacity="0.5"/>
    <text x="40" y="119.0" font-family="'Courier New', 'Courier', monospace"
          font-size="12" fill="#33ff00" text-anchor="end">8.9</text>
    <line x1="50" y1="147.5" x2="750" y2="147.5"
          stroke="#1a5f1a" stroke-width="1" stroke-dasharray="5,5" opacity="0.5"/>
    <text x="40" y="151.5" font-family="'Courier New', 'Courier', monospace"
          font-size="12" fill="#33ff00" text-anchor="end">4.6</text>
    <line x1="50" y1="180.0" x2="750" y2="180.0"
          stroke="#1a5f1a" stroke-width="1" stroke-dasharray="5,5" opacity="0.5"/>
    <text x="40" y="184.0" font-family="'Courier New', 'Courier', monospace"
          font-size="12" fill="#33ff00" text-anchor="end">0.2</text>
    <!-- Y-axis -->
    <line x1="50" y1="50" x2="50" y2="180"
          stroke="#33ff00" stroke-width="2"/>
    <!-- X-axis -->
    <line x1="50" y1="180" x2="750" y2="180"
          stroke="#33ff00" stroke-width="2"/>
    <line x1="50.0" y1="115.42994869794094" x2="79.16666666666667" y2="89.11011046528753" stroke="#ffff00" stroke-width="3" stroke-linecap="round"/>
    <line x1="79.16666666666667" y1="89.11011046528753" x2="108.33333333333334" y2="103.26812509885112" stroke="#ffff00" stroke-width="3" stroke-linecap="round"/>
    <line x1="108.33333333333334" y1="103.26812509885112" x2="137.5" y2="145.70791339169534" stroke="#ffff00" stroke-width="3" stroke-linecap="round"/>
    <line x1="137.5" y1="145.70791339169534" x2="166.66666666666669" y2="50.28823679068046" stroke="#ffff00" stroke-width="3" stroke-linecap="round"/>
    <line x1="166.66666666666669" y1="50.28823679068046" x2="195.83333333333334" y2="126.61668935927756" stroke="#ffff00" stroke-width="3" stroke-linecap="round"/>
    <line x1="195.83333333333334" y1="126.61668935927756" x2="225.0" y2="67.92441983258743" stroke="#ffff00" stroke-width="3" stroke-linecap="round"/>
    <line x1="225.0" y1="67.92441983258743" x2="254.16666666666666" y2="97.00816021199695" stroke="#ffff00" stroke-width="3" stroke-linecap="round"/>
    <line x1="254.16666666666666" y1="97.00816021199695" x2="283.33333333333337" y2="180.0" stroke="#ffff00" stroke-width="3" stroke-linecap="round"/>
    <line x1="283.33333333333337" y1="180.0" x2="312.5" y2="178.63725930480106" stroke="#ffff00" stroke-width="3" stroke-linecap="round"/>
    <line x1="312.5" y1="178.63725930480106" x2="341.6666666666667" y2="143.74182159813734" stroke="#ffff00" stroke-width="3" stroke-linecap="round"/>
    <line x1="341.6666666666667" y1="143.74182159813734" x2="370.8333333333333" y2="132.44818751440164" stroke="#ffff00" stroke-width="3" stroke-linecap="round"/>
    <line x1="370.8333333333333" y1="132.44818751440164" x2="400.0" y2="149.20566174882083" stroke="#ffff00" stroke-width="3" stroke-linecap="round"/>
    <line x1="400.0" y1="149.20566174882083" x2="429.1666666666667" y2="149.1210162385784" stroke="#ffff00" stroke-width="3" stroke-linecap="round"/>
    <line x1="429.1666666666667" y1="149.1210162385784" x2="458.3333333333333" y2="132.93464989069997" stroke="#ffff00" stroke-width="3" stroke-linecap="round"/>
    <line x1="458.3333333333333" y1="132.93464989069997" x2="487.5" y2="74.84487123953362" stroke="#ffff00" stroke-width="3" stroke-linecap="round"/>
    <line x1="487.5" y1="74.84487123953362" x2="516.6666666666667" y2="128.11290703417134" stroke="#ffff00" stroke-width="3" stroke-linecap="round"/>
    <line x1="516.6666666666667" y1="128.11290703417134" x2="545.8333333333333" y2="126.39957146732054" stroke="#ffff00" stroke-width="3" stroke-linecap="round"/>
    <line x1="545.8333333333333" y1="126.39957146732054" x2="575.0" y2="140.69780562310882" stroke="#ffff00" stroke-width="3" stroke-linecap="round"/>
    <line x1="575.0" y1="140.69780562310882" x2="604.1666666666666" y2="53.50362010915478" stroke="#ffff00" stroke-width="3" stroke-linecap="round"/>
    <line x1="604.1666666666666" y1="53.50362010915478" x2="633.3333333333334" y2="63.68360832607064" stroke="#ffff00" stroke-width="3" stroke-linecap="round"/>
    <line x1="633.3333333333334" y1="63.68360832607064" x2="662.5" y2="58.202331527725974" stroke="#ffff00" stroke-width="3" stroke-linecap="round"/>
    <line x1="662.5" y1="58.202331527725974" x2="691.6666666666666" y2="62.81323457849777" stroke="#ffff00" stroke-width="3" stroke-linecap="round"/>
    <line x1="691.6666666666666" y1="62.81323457849777" x2="720.8333333333334" y2="50.0" stroke="#ffff00" stroke-width="3" stroke-linecap="round"/>
    <line x1="720.8333333333334" y1="50.0" x2="750.0" y2="150.36294537530384" stroke="#ffff00" stroke-width="3" stroke-linecap="round"/>
    <rect x="46.0" y="111.42994869794094" width="8" height="8" fill="#ffff00" stroke="#0a0e14" stroke-width="1"/>
    <rect x="75.16666666666667" y="85.11011046528753" width="8" height="8" fill="#ffff00" stroke="#0a0e14" stroke-width="1"/>
    <rect x="104.33333333333334" y="99.26812509885112" width="8" height="8" fill="#ffff00" stroke="#0a0e14" stroke-width="1"/>
    <rect x="133.5" y="141.70791339169534" width="8" height="8" fill="#ffff00" stroke="#0a0e14" stroke-width="1"/>
    <rect x="162.66666666666669" y="46.28823679068046" width="8" height="8" fill="#ffff00" stroke="#0a0e14" stroke-width="1"/>
    <rect x="191.83333333333334" y="122.61668935927756" width="8" height="8" fill="#ffff00" stroke="#0a0e14" stroke-width="1"/>
    <rect x="221.0" y="63.92441983258743" width="8" height="8" fill="#ffff00" stroke="#0a0e14" stroke-width="1"/>
    <rect x="250.16666666666666" y="93.00816021199695" width="8" height="8" fill="#ffff00" stroke="#0a0e14" stroke-width="1"/>
    <rect x="279.33333333333337" y="176.0" width="8" height="8" fill="#ffff00" stroke="#0a0e14" stroke-width="1"/>
    <rect x="308.5" y="174.63725930480106" width="8" height="8" fill="#ffff00" stroke="#0a0e14" stroke-width="1"/>
    <rect x="337.6666666666667" y="139.74182159813734" width="8" height="8" fill="#ffff00" stroke="#0a0e14" stroke-width="1"/>
    <rect x="366.8333333333333" y="128.44818751440164" width="8" height="8" fill="#ffff00" stroke="#0a0e14" stroke-width="1"/>
    <rect x="396.0" y="145.20566174882083" width="8" height="8" fill="#ffff00" stroke="#0a0e14" stroke-width="1"/>
    <rect x="425.1666666666667" y="145.1210162385784" width="8" height="8" fill="#ffff00" stroke="#0a0e14" stroke-width="1"/>
    <rect x="454.3333333333333" y="128.93464989069997" width="8" height="8" fill="#ffff00" stroke="#0a0e14" stroke-width="1"/>
    <rect x="483.5" y="70.84487123953362" width="8" height="8" fill="#ffff00" stroke="#0a0e14" stroke-width="1"/>
    <rect x="512.6666666666667" y="124.11290703417134" width="8" height="8" fill="#ffff00" stroke="#0a0e14" stroke-width="1"/>
    <rect x="541.8333333333333" y="122.39957146732054" width="8" height="8" fill="#ffff00" stroke="#0a0e14" stroke-width="1"/>
    <rect x="571.0" y="136.69780562310882" width="8" height="8" fill="#ffff00" stroke="#0a0e14" stroke-width="1"/>
    <rect x="600.1666666666666" y="49.50362010915478" width="8" height="8" fill="#ffff00" stroke="#0a0e14" stroke-width="1"/>
    <rect x="629.3333333333334" y="59.68360832607064" width="8" height="8" fill="#ffff00" stroke="#0a0e14" stroke-width="1"/>
    <rect x="658.5" y="54.202331527725974" width="8" height="8" fill="#ffff00" stroke="#0a0e14" stroke-width="1"/>
    <rect x="687.6666666666666" y="58.81323457849777" width="8" height="8" fill="#ffff00" stroke="#0a0e14" stroke-width="1"/>
    <rect x="716.8333333333334" y="46.0" width="8" height="8" fill="#ffff00" stroke="#0a0e14" stroke-width="1"/>
    <rect x="746.0" y="146.36294537530384" width="8" height="8" fill="#ffff00" stroke="#0a0e14" stroke-width="1"/>
    <text x="50.0" y="205" font-family="'Courier New', 'Courier', monospace"
          font-size="10" fill="#33ff00" text-anchor="middle" transform="rotate(-45, 50.0, 205)">
        11/06
    </text>
    <text x="166.66666666666669" y="205" font-family="'Courier New', 'Courier', monospace"
          font-size="10" fill="#33ff00" text-anchor="middle" transform="rotate(-45, 166.66666666666669, 205)">
        11/14
    </text>
    <text x="283.33333333333337" y="205" font-family="'Courier New', 'Courier', monospace"
          font-size="10" fill="#33ff00" text-anchor="middle" transform="rotate(-45, 283.33333333333337, 205)">
        01/02
    </text>
    <text x="400.0" y="205" font-family="'Courier New', 'Courier', monospace"
          font-size="10" fill="#33ff00" text-anchor="middle" transform="rotate(-45, 400.0, 205)">
        01/04
    </text>
    <text x="516.6666666666667" y="205" font-family="'Courier New', 'Courier', monospace"
          font-size="10" fill="#33ff00" text-anchor="middle" transform="rotate(-45, 516.6666666666667, 205)">
        01/09
    </text>
    <text x="633.3333333333334" y="205" font-family="'Courier New', 'Courier', monospace"
          font-size="10" fill="#33ff00" text-anchor="middle" transform="rotate(-45, 633.3333333333334, 205)">
        01/13
    </text>
    <text x="750.0" y="205" font-family="'Courier New', 'Courier', monospace"
          font-size="10" fill="#33ff00" text-anchor="middle" transform="rotate(-45, 750.0, 205)">
        01/17
    </text>
    <text x="750" y="30" font-family="'Courier New', 'Courier', monospace"
          font-size="12" fill="#33ff00" text-anchor="end">
        AVG: 9.5 │ MAX: 17.7 │ MIN: 0.2
    </text>
</svg>